<?xml version="1.0" standalone="no"?>
<!DOCTYPE svg PUBLIC "-//W3C//DTD SVG 20010904//EN"
 "http://www.w3.org/TR/2001/REC-SVG-20010904/DTD/svg10.dtd">
<svg version="1.0" xmlns="http://www.w3.org/2000/svg"
 width="500.000000pt" height="500.000000pt" viewBox="0 0 500.000000 500.000000"
 preserveAspectRatio="xMidYMid meet">
<metadata>
Created by potrace 1.11, written by Peter Selinger 2001-2013
</metadata>
<g transform="translate(0.000000,500.000000) scale(0.100000,-0.100000)"
fill="#000000" stroke="none">
<path d="M0 2500 l0 -2500 2500 0 2500 0 0 2500 0 2500 -2500 0 -2500 0 0
-2500z m1897 -12 c-3 -852 -4 -928 -21 -982 -56 -187 -162 -282 -344 -307 -41
-6 -103 -8 -136 -4 -76 8 -236 44 -236 53 0 4 7 46 16 95 18 98 13 95 109 72
80 -19 196 -19 243 0 53 23 79 51 104 114 l23 56 3 913 3 912 120 0 120 0 -4
-922z m1178 911 c273 -27 436 -114 496 -265 20 -50 24 -77 24 -174 0 -108 -2
-119 -31 -181 -43 -90 -93 -142 -174 -183 l-69 -34 46 -11 c115 -29 227 -119
275 -222 71 -148 57 -354 -30 -481 -43 -62 -131 -142 -189 -172 -28 -14 -84
-35 -125 -48 -69 -21 -94 -22 -485 -26 l-413 -3 0 905 0 906 283 0 c156 0 333
-5 392 -11z"/>
<path d="M2640 2919 l0 -282 218 6 c140 4 235 11 267 20 143 40 207 111 221
245 9 79 -14 157 -58 199 -76 73 -170 93 -450 93 l-198 0 0 -281z"/>
<path d="M2640 2119 l0 -322 243 6 c175 4 258 10 300 21 163 45 236 127 245
278 8 143 -34 235 -129 284 -88 44 -162 54 -421 54 l-238 0 0 -321z"/>
</g>
</svg>
